#!OML:ASF F:\VICON\USERDATA\INSTALL\rory3\rory3.ASF
:FULLY-SPECIFIED
:DEGREES
225
root -0.379506 17.8545 11.3121 0.284108 1.61965 -0.937596
lowerback 5.01465 -2.25724 0.294526
upperback 0.681097 -2.90792 3.83784
thorax -1.92283 -1.44547 3.98296
lowerneck -14.7924 -1.96457 -9.69671
upperneck 25.2051 -1.10603 3.25132
head 10.6332 -1.0502 2.65868
rclavicle 3.06128e-014 1.66979e-014
rhumerus -36.2969 -19.573 -73.9376
rradius 22.9412
rwrist 16.4132
rhand -18.8969 15.9464
rfingers 7.12502
rthumb 7.40467 -13.904
lclavicle 3.06128e-014 1.66979e-014
lhumerus -33.1934 4.44465 87.6896
lradius 34.9563
lwrist -11.6139
lhand -16.867 24.1573
lfingers 7.12502
lthumb 9.36369 53.9293
rfemur -18.8113 5.40935 24.6851
rtibia 33.4058
rfoot -10.4169 -7.86689
rtoes -1.38289
lfemur -7.59397 -1.75214 -19.0922
ltibia 59.515
lfoot 12.2469 -9.24534
ltoes -13.1375
226
root -0.386967 17.878 11.4936 0.263044 1.43813 -1.09144
lowerback 4.96853 -2.12891 0.559639
upperback 0.64275 -2.72304 3.78514
thorax -1.96377 -1.35405 3.76652
lowerneck -14.2853 -1.95283 -9.8759
upperneck 25.1066 -1.14349 3.41597
head 10.5028 -1.06491 2.74177
rclavicle 3.62782e-014 -3.4191e-014
rhumerus -35.8355 -18.4299 -74.6705
rradius 23.2641
rwrist 15.8946
rhand -19.2562 15.3432
rfingers 7.12502
rthumb 7.05783 -14.5192
lclavicle 3.62782e-014 -3.4191e-014
lhumerus -33.7643 4.26775 87.8666
lradius 34.7598
lwrist -11.9242
lhand -16.8982 23.8776
lfingers 7.12502
lthumb 9.33361 53.6509
rfemur -17.9735 5.54194 24.9876
rtibia 33.1325
rfoot -10.7988 -7.98014
rtoes -1.42396
lfemur -8.98975 -1.24001 -18.8738
ltibia 60.306
lfoot 10.4318 -8.99317
ltoes -15.2602
227
root -0.394036 17.894 11.6806 0.125931 1.25532 -1.03822
lowerback 5.07068 -1.97365 0.562019
upperback 0.605161 -2.51414 3.66423
thorax -2.07779 -1.24857 3.63209
lowerneck -13.9328 -1.97711 -9.89932
upperneck 25.2001 -1.24965 3.5559
head 10.4765 -1.10372 2.78403
rclavicle 5.06901e-015 -1.98785e-014
rhumerus -35.6161 -17.6084 -75.2111
rradius 23.6671
rwrist 15.7498
rhand -19.6562 15.2415
rfingers 7.12502
rthumb 6.67176 -14.6334
lclavicle 5.06901e-015 -1.98785e-014
lhumerus -34.3756 3.98265 88.0305
lradius 34.5662
lwrist -12.1596
lhand -17.408 23.2671
lfingers 7.12502
lthumb 8.84169 53.0618
rfemur -16.9491 5.68843 25.076
rtibia 32.9134
rfoot -11.2487 -8.12215
rtoes -1.08443
lfemur -10.2109 -0.733466 -18.91
ltibia 60.9483
lfoot 9.19963 -8.18722
ltoes -16.6532
228
root -0.399875 17.8997 11.8702 0.0619419 1.01934 -0.932878
lowerback 5.05556 -1.81162 0.515309
upperback 0.562816 -2.30178 3.57023
thorax -2.12729 -1.14162 3.54753
lowerneck -13.5411 -1.95942 -9.96564
upperneck 25.2077 -1.27109 3.62759
head 10.4055 -1.11391 2.81847
rclavicle 1.99779e-014 -2.14687e-014
rhumerus -35.3097 -16.7954 -75.6448
rradius 24.0588
rwrist 15.7048
rhand -19.7902 14.9636
rfingers 7.12502
rthumb 6.54238 -14.9153
lclavicle 1.99779e-014 -2.14687e-014
lhumerus -34.8422 3.89636 88.2048
lradius 34.1265
lwrist -12.1223
lhand -17.5113 23.0882
lfingers 7.12502
lthumb 8.74193 52.8872
rfemur -16.0371 5.81491 25.1071
rtibia 32.7607
rfoot -11.685 -8.28112
rtoes -1.30485
lfemur -11.4447 -0.125851 -19.0078
ltibia 61.4613
lfoot 7.80263 -7.30942
ltoes -16.1701
229
root -0.408395 17.8943 12.0462 0.120677 0.684387 -1.03671
lowerback 5.08303 -1.61789 0.661354
upperback 0.474526 -2.03251 3.52512
thorax -2.25573 -1.00689 3.40401
lowerneck -13.3389 -1.92604 -9.98346
upperneck 25.3687 -1.24332 3.63189
head 10.4232 -1.10747 2.82948
rclavicle -3.47376e-014 3.02153e-014
rhumerus -35.0163 -15.8327 -76.1805
rradius 24.6032
rwrist 15.6051
rhand -19.9027 14.4314
rfingers 7.12502
rthumb 6.43374 -15.4509
lclavicle -3.47376e-014 3.02153e-014
lhumerus -35.4306 3.86778 88.352
lradius 33.9216
lwrist -11.8444
lhand -17.6583 23.4627
lfingers 7.12502
lthumb 8.60009 53.2676
rfemur -15.4143 6.19723 25.3726
rtibia 32.6839
rfoot -12.1783 -8.53483
rtoes -0.649954
lfemur -12.8661 0.492419 -18.8575
ltibia 61.9348
lfoot 6.16759 -6.50343
ltoes -15.0929
230
root -0.414868 17.8867 12.2214 0.192358 0.422277 -1.2461
lowerback 4.98612 -1.44339 0.87448
upperback 0.547069 -1.79318 3.52381
thorax -2.14611 -0.8903 3.26164
lowerneck -13.5806 -2.04242 -9.99404
upperneck 25.5301 -1.38143 3.64632
head 10.5411 -1.17239 2.82152
rclavicle 4.96962e-016 2.54444e-014
rhumerus -34.5131 -14.9654 -76.7489
rradius 25.3648
rwrist 15.8089
rhand -19.8357 13.6895
rfingers 7.12502
rthumb 6.49844 -16.1908
lclavicle 4.96962e-016 2.54444e-014
lhumerus -35.7321 3.95402 88.4776
lradius 33.8411
lwrist -11.5602
lhand -17.6249 23.5664
lfingers 7.12502
lthumb 8.63232 53.3699
rfemur -14.8154 6.40197 25.7409
rtibia 32.6233
rfoot -12.8343 -8.70847
rtoes 0.317256
lfemur -14.2826 1.05291 -18.615
ltibia 62.3345
lfoot 4.43981 -5.92421
ltoes -16.5373
231
root -0.422777 17.8817 12.3916 0.192328 0.273438 -1.4042
lowerback 5.04886 -1.27091 1.06943
upperback 0.601295 -1.55347 3.46656
thorax -2.14403 -0.772526 3.07737
lowerneck -13.8747 -2.2087 -10.0011
upperneck 25.7874 -1.59236 3.68439
head 10.7112 -1.26925 2.81315
rclavicle -3.61788e-014 3.4191e-014
rhumerus -33.8747 -14.6439 -77.0853
rradius 25.6402
rwrist 17.137
rhand -19.6443 13.2031
rfingers 7.12502
rthumb 6.6832 -16.6714
lclavicle -3.61788e-014 3.4191e-014
lhumerus -35.8554 3.88269 88.5682
lradius 33.5621
lwrist -11.2914
lhand -17.1822 23.692
lfingers 7.12502
lthumb 9.05954 53.4774
rfemur -14.108 6.56331 26.0609
rtibia 32.5653
rfoot -13.5492 -8.92478
rtoes 0.724481
lfemur -15.7461 1.43403 -18.4175
ltibia 62.5944
lfoot 3.29174 -5.24201
ltoes -15.6277
232
root -0.433166 17.8734 12.5608 0.0303616 0.138095 -1.50923
lowerback 5.39093 -1.1612 1.16869
upperback 0.560968 -1.38986 3.41498
thorax -2.38814 -0.690589 2.96704
lowerneck -13.7576 -2.16631 -9.95707
upperneck 25.9724 -1.55011 3.65947
head 10.7529 -1.25376 2.80567
rclavicle 6.01324e-015 -8.74653e-015
rhumerus -33.3912 -13.934 -77.4317
rradius 25.658
rwrist 18.9238
rhand -19.7617 13.6732
rfingers 7.12502
rthumb 6.56985 -16.2049
lclavicle 6.01324e-015 -8.74653e-015
lhumerus -36.2366 3.77355 88.6467
lradius 33.2115
lwrist -10.6939
lhand -17.0287 24.1743
lfingers 7.12502
lthumb 9.20761 53.9533
rfemur -13.1786 6.82185 26.3633
rtibia 32.5065
rfoot -14.1269 -9.24125
rtoes 0.567078
lfemur -17.1032 1.73479 -18.2345
ltibia 62.7208
lfoot 2.49996 -4.49331
ltoes -12.0454
233
root -0.437759 17.855 12.7344 -0.00718561 0.139973 -1.5126
lowerback 5.43292 -1.08695 1.22818
upperback 0.66534 -1.29163 3.32977
thorax -2.31145 -0.643017 2.8372
lowerneck -13.9667 -2.15709 -9.90727
upperneck 25.9799 -1.54369 3.72888
head 10.7951 -1.23594 2.82361
rclavicle 2.00276e-014 0
rhumerus -32.7489 -12.946 -77.9584
rradius 26.0541
rwrist 20.0536
rhand -20.1053 14.4682
rfingers 7.12502
rthumb 6.23811 -15.4199
lclavicle 2.00276e-014 0
lhumerus -36.4739 3.78371 88.7079
lradius 33.0816
lwrist -10.18
lhand -17.2361 23.6696
lfingers 7.12502
lthumb 9.0075 53.4573
rfemur -12.3309 6.85667 26.5193
rtibia 32.4427
rfoot -14.7063 -9.62418
rtoes -0.00156518
lfemur -18.4343 1.87713 -18.2313
ltibia 62.684
lfoot 1.74901 -3.63167
ltoes -9.68366
234
root -0.437752 17.8343 12.9066 0.082863 0.0842112 -1.61184
lowerback 5.334 -0.941876 1.44645
upperback 0.815499 -1.09568 3.26601
thorax -2.1145 -0.548045 2.62945
lowerneck -14.3598 -2.3014 -9.93354
upperneck 25.8721 -1.71807 3.81372
head 10.8471 -1.30185 2.83338
rclavicle -3.61788e-014 2.8625e-014
rhumerus -32.0844 -12.2078 -78.3779
rradius 26.838
rwrist 20.9016
rhand -19.8949 15.1841
rfingers 7.12502
rthumb 6.44129 -14.6979
lclavicle -3.61788e-014 2.8625e-014
lhumerus -36.6377 3.82602 88.7835
lradius 33.2655
lwrist -10.4257
lhand -16.4932 24.1382
lfingers 7.12502
lthumb 9.72431 53.8937
rfemur -11.7096 6.93425 26.7379
rtibia 32.3964
rfoot -15.3057 -9.98396
rtoes -0.750371
lfemur -19.8192 2.12651 -18.1727
ltibia 62.5092
lfoot 0.615331 -3.03102
ltoes -10.5971
235
root -0.4381 17.8135 13.0751 0.0825239 -0.20125 -2.01293
lowerback 5.50731 -0.764241 1.97648
upperback 0.775162 -0.819823 3.25472
thorax -2.27026 -0.414316 2.30405
lowerneck -14.0834 -2.37369 -9.98069
upperneck 25.6809 -1.86518 3.91487
head 10.7343 -1.35873 2.8555
rclavicle 1.09332e-014 -1.82882e-014
rhumerus -31.8407 -11.2182 -78.7796
rradius 27.5212
rwrist 21.4604
rhand -20.2091 16.2886
rfingers 7.12502
rthumb 6.13796 -13.6025
lclavicle 1.09332e-014 -1.82882e-014
lhumerus -37.0788 3.86977 88.7259
lradius 33.268
lwrist -10.7323
lhand -15.298 25.5423
lfingers 7.12502
lthumb 10.8774 55.2406
rfemur -11.0697 7.18721 27.2924
rtibia 32.3865
rfoot -15.9402 -10.2296
rtoes -2.00069
lfemur -21.0676 2.56806 -17.7871
ltibia 62.1962
lfoot -0.781311 -2.50889
ltoes -12.1411
236
root -0.441411 17.7877 13.2451 0.00020886 -0.330716 -2.42704
lowerback 5.71336 -0.669639 2.45862
upperback 0.680001 -0.651099 3.2552
thorax -2.49345 -0.334946 2.02579
lowerneck -13.4008 -2.31674 -9.88841
upperneck 25.3832 -1.88438 3.92593
head 10.4901 -1.35553 2.83753
rclavicle -7.40473e-015 -7.95139e-015
rhumerus -31.6564 -9.80351 -79.2796
rradius 27.973
rwrist 21.4022
rhand -20.6326 17.7249
rfingers 7.12502
rthumb 5.72911 -12.1777
lclavicle -7.40473e-015 -7.95139e-015
lhumerus -37.6824 3.97419 88.6677
lradius 33.0976
lwrist -10.2384
lhand -15.5467 25.5116
lfingers 7.12502
lthumb 10.6374 55.2223
rfemur -10.3443 7.2609 27.888
rtibia 32.3949
rfoot -16.5858 -10.4444
rtoes -2.32434
lfemur -22.2245 2.8672 -17.3563
ltibia 61.7185
lfoot -2.08015 -2.07456
ltoes -13.3638
237
root -0.450091 17.7591 13.4148 -0.066422 -0.475167 -2.74496
lowerback 5.80963 -0.534684 2.75724
upperback 0.684529 -0.447848 3.25757
thorax -2.54844 -0.236785 1.84607
lowerneck -13.1599 -2.28289 -9.77195
upperneck 25.2755 -1.88485 3.90814
head 10.4013 -1.3457 2.81012
rclavicle 4.07509e-015 9.54166e-015
rhumerus -31.3472 -8.37546 -79.785
rradius 28.6659
rwrist 21.1484
rhand -20.3432 17.4031
rfingers 7.12502
rthumb 6.00849 -12.4917
lclavicle 4.07509e-015 9.54166e-015
lhumerus -38.0831 4.00438 88.6428
lradius 32.8425
lwrist -9.66779
lhand -15.7301 25.4823
lfingers 7.12502
lthumb 10.4605 55.2021
rfemur -9.66737 7.4453 28.43
rtibia 32.403
rfoot -16.9095 -10.91
rtoes -3.51951
lfemur -23.3315 3.23688 -17.0141
ltibia 61.0477
lfoot -2.99131 -1.61004
ltoes -13.7311
238
root -0.450875 17.7347 13.5813 -0.118149 -0.569317 -2.94428
lowerback 6.07474 -0.440251 2.96977
upperback 0.646747 -0.292316 3.26903
thorax -2.73882 -0.162655 1.72964
lowerneck -13.1211 -2.30393 -9.80379
upperneck 25.2778 -1.92774 3.97366
head 10.3987 -1.36091 2.83381
rclavicle -9.93923e-016 1.98785e-014
rhumerus -31.0875 -7.02526 -80.1311
rradius 29.6895
rwrist 21.251
rhand -18.6828 15.2997
rfingers 7.12502
rthumb 7.61128 -14.5434
lclavicle -9.93923e-016 1.98785e-014
lhumerus -38.425 4.15301 88.659
lradius 32.5341
lwrist -9.96835
lhand -15.1291 25.9916
lfingers 7.12502
lthumb 11.0402 55.6812
rfemur -9.00973 7.48773 28.7821
rtibia 32.4255
rfoot -17.3661 -11.2089
rtoes -3.83234
lfemur -24.3652 3.3736 -16.8468
ltibia 60.1563
lfoot -3.67925 -0.867071
ltoes -13.3128
239
root -0.445901 17.713 13.7474 -0.0678752 -0.549679 -3.10098
lowerback 6.21471 -0.368471 3.24835
upperback 0.652965 -0.171684 3.22403
thorax -2.81278 -0.106397 1.51806
lowerneck -13.2426 -2.34436 -9.8195
upperneck 25.3335 -1.99848 4.09053
head 10.4489 -1.38116 2.87038
rclavicle -6.55989e-015 -1.51076e-014
rhumerus -30.6332 -6.27876 -80.2913
rradius 30.3891
rwrist 21.9401
rhand -18.0239 15.2175
rfingers 7.12502
rthumb 8.24731 -14.6016
lclavicle -6.55989e-015 -1.51076e-014
lhumerus -38.6118 4.29733 88.6018
lradius 32.3143
lwrist -10.3775
lhand -14.8237 25.7997
lfingers 7.12502
lthumb 11.3348 55.4734
rfemur -8.42107 7.2901 29.0038
rtibia 32.434
rfoot -17.9869 -11.2378
rtoes -3.78165
lfemur -25.4033 3.34293 -16.781
ltibia 59.0368
lfoot -4.31305 0.0246752
ltoes -13.1961
